<mxfile host="65bd71144e">
    <diagram id="nPJia70DpYthQAOyke3O" name="Page-1">
        <mxGraphModel dx="2334" dy="839" grid="1" gridSize="10" guides="1" tooltips="1" connect="1" arrows="1" fold="1" page="1" pageScale="1" pageWidth="827" pageHeight="1169" math="0" shadow="0">
            <root>
                <mxCell id="0"/>
                <mxCell id="1" parent="0"/>
                <mxCell id="2" value="" style="aspect=fixed;perimeter=ellipsePerimeter;html=1;align=center;shadow=0;dashed=0;spacingTop=3;image;image=img/lib/active_directory/web_server.svg;fontSize=12;" vertex="1" parent="1">
                    <mxGeometry x="140" y="50" width="56" height="70" as="geometry"/>
                </mxCell>
                <mxCell id="6" value="" style="group;fontFamily=open sans;fontSource=https%3A%2F%2Ffonts.googleapis.com%2Fcss%3Ffamily%3Dopen%2Bsans;fontSize=15;fontStyle=0" vertex="1" connectable="0" parent="1">
                    <mxGeometry x="300" y="80" width="90" height="120" as="geometry"/>
                </mxCell>
                <mxCell id="7" value="Plain text" style="shape=note;whiteSpace=wrap;html=1;backgroundOutline=1;darkOpacity=0.05;fontSize=15;fontFamily=open sans;fontSource=https%3A%2F%2Ffonts.googleapis.com%2Fcss%3Ffamily%3Dopen%2Bsans;fontStyle=0" vertex="1" parent="6">
                    <mxGeometry width="90" height="120" as="geometry"/>
                </mxCell>
                <mxCell id="8" value="" style="shape=mxgraph.bpmn.script_task;html=1;outlineConnect=0;fontSize=15;align=left;fontFamily=open sans;fontSource=https%3A%2F%2Ffonts.googleapis.com%2Fcss%3Ffamily%3Dopen%2Bsans;fontStyle=0" vertex="1" parent="6">
                    <mxGeometry x="14.5" y="80" width="61" height="33" as="geometry"/>
                </mxCell>
                <mxCell id="9" value="" style="ellipse;shape=cloud;whiteSpace=wrap;html=1;" vertex="1" parent="1">
                    <mxGeometry x="70" y="230" width="144" height="92.42" as="geometry"/>
                </mxCell>
                <mxCell id="10" value="" style="html=1;verticalLabelPosition=bottom;align=center;labelBackgroundColor=#ffffff;verticalAlign=top;strokeWidth=2;strokeColor=#0080F0;shadow=0;dashed=0;shape=mxgraph.ios7.icons.note;pointerEvents=1" vertex="1" parent="1">
                    <mxGeometry x="127.15" y="261.36" width="29.7" height="29.7" as="geometry"/>
                </mxCell>
                <mxCell id="11" value="Speaker" style="strokeColor=#dddddd;shadow=1;strokeWidth=1;rounded=1;absoluteArcSize=1;arcSize=2;labelPosition=center;verticalLabelPosition=middle;align=center;verticalAlign=bottom;spacingLeft=0;fontColor=#999999;fontSize=12;whiteSpace=wrap;spacingBottom=2;" vertex="1" parent="1">
                    <mxGeometry x="330" y="237.42" width="70" height="85" as="geometry"/>
                </mxCell>
                <mxCell id="12" value="" style="dashed=0;connectable=0;html=1;fillColor=#757575;strokeColor=none;shape=mxgraph.gcp2.speaker;part=1;" vertex="1" parent="11">
                    <mxGeometry x="0.5" width="35" height="50" relative="1" as="geometry">
                        <mxPoint x="-17.5" y="10" as="offset"/>
                    </mxGeometry>
                </mxCell>
                <mxCell id="13" value="" style="verticalLabelPosition=bottom;html=1;verticalAlign=top;align=center;strokeColor=none;fillColor=#00BEF2;shape=mxgraph.azure.mobile;pointerEvents=1;" vertex="1" parent="1">
                    <mxGeometry x="190" y="390" width="35" height="50" as="geometry"/>
                </mxCell>
                <mxCell id="14" value="bluetooth" style="endArrow=classic;startArrow=classic;html=1;entryX=0.25;entryY=1;entryDx=0;entryDy=0;exitX=0.97;exitY=0.02;exitDx=0;exitDy=0;exitPerimeter=0;" edge="1" parent="1" source="13" target="11">
                    <mxGeometry width="50" height="50" relative="1" as="geometry">
                        <mxPoint x="264" y="417.42" as="sourcePoint"/>
                        <mxPoint x="354" y="322.42" as="targetPoint"/>
                    </mxGeometry>
                </mxCell>
                <mxCell id="15" value="" style="endArrow=classic;startArrow=classic;html=1;entryX=0.03;entryY=0.02;entryDx=0;entryDy=0;entryPerimeter=0;" edge="1" parent="1" target="13">
                    <mxGeometry width="50" height="50" relative="1" as="geometry">
                        <mxPoint x="154" y="314.9200000000001" as="sourcePoint"/>
                        <mxPoint x="324" y="322.42" as="targetPoint"/>
                    </mxGeometry>
                </mxCell>
                <mxCell id="16" value="" style="shape=mxgraph.cisco.computers_and_peripherals.web_browser;html=1;pointerEvents=1;dashed=0;fillColor=#036897;strokeColor=#ffffff;strokeWidth=2;verticalLabelPosition=bottom;verticalAlign=top;align=center;outlineConnect=0;" vertex="1" parent="1">
                    <mxGeometry x="650" y="150" width="80" height="80" as="geometry"/>
                </mxCell>
                <mxCell id="17" value="" style="shadow=0;dashed=0;html=1;strokeColor=none;fillColor=#EF8F21;labelPosition=center;verticalLabelPosition=bottom;verticalAlign=top;align=center;outlineConnect=0;shape=mxgraph.veeam.linux;" vertex="1" parent="1">
                    <mxGeometry x="550" y="552.9999999999999" width="69" height="62.4" as="geometry"/>
                </mxCell>
                <mxCell id="18" value="" style="pointerEvents=1;shadow=0;dashed=0;html=1;strokeColor=none;fillColor=#005F4B;labelPosition=center;verticalLabelPosition=bottom;verticalAlign=top;align=center;outlineConnect=0;shape=mxgraph.veeam2.dns;fontSize=12;" vertex="1" parent="1">
                    <mxGeometry x="390" y="520" width="48" height="50" as="geometry"/>
                </mxCell>
                <mxCell id="19" value="internet" style="ellipse;shape=cloud;whiteSpace=wrap;html=1;fontSize=12;" vertex="1" parent="1">
                    <mxGeometry x="590" y="300" width="120" height="80" as="geometry"/>
                </mxCell>
                <mxCell id="20" value="" style="image;html=1;image=img/lib/clip_art/networking/Firewall_02_128x128.png" vertex="1" parent="1">
                    <mxGeometry x="414" y="360" width="80" height="80" as="geometry"/>
                </mxCell>
            </root>
        </mxGraphModel>
    </diagram>
</mxfile>